<mxfile host="app.diagrams.net" agent="Mozilla/5.0 (Windows NT 10.0; Win64; x64) AppleWebKit/537.36 (KHTML, like Gecko) Chrome/132.0.0.0 Safari/537.36 Edg/132.0.0.0" version="26.0.11">
  <diagram name="Страница — 1" id="I297ZQAOhsgN4vA4LAuz">
    <mxGraphModel dx="396" dy="185" grid="1" gridSize="10" guides="1" tooltips="1" connect="1" arrows="1" fold="1" page="1" pageScale="1" pageWidth="827" pageHeight="1169" math="0" shadow="0">
      <root>
        <mxCell id="0" />
        <mxCell id="1" parent="0" />
        <mxCell id="_KIobRWbNTtasUsDJoAX-1" value="&lt;b&gt;&lt;font style=&quot;font-size: 50px;&quot;&gt;М&lt;/font&gt;&lt;/b&gt;" style="ellipse;whiteSpace=wrap;html=1;aspect=fixed;" vertex="1" parent="1">
          <mxGeometry x="360" y="230" width="80" height="80" as="geometry" />
        </mxCell>
        <mxCell id="_KIobRWbNTtasUsDJoAX-2" value="" style="ellipse;whiteSpace=wrap;html=1;aspect=fixed;" vertex="1" parent="1">
          <mxGeometry x="360" y="360" width="80" height="80" as="geometry" />
        </mxCell>
        <mxCell id="_KIobRWbNTtasUsDJoAX-3" value="" style="endArrow=none;html=1;rounded=0;entryX=0.5;entryY=1;entryDx=0;entryDy=0;" edge="1" parent="1" target="_KIobRWbNTtasUsDJoAX-1">
          <mxGeometry width="50" height="50" relative="1" as="geometry">
            <mxPoint x="430" y="330" as="sourcePoint" />
            <mxPoint x="410" y="300" as="targetPoint" />
            <Array as="points">
              <mxPoint x="414" y="330" />
              <mxPoint x="400" y="330" />
            </Array>
          </mxGeometry>
        </mxCell>
        <mxCell id="_KIobRWbNTtasUsDJoAX-4" value="" style="endArrow=none;html=1;rounded=0;exitX=0.5;exitY=0;exitDx=0;exitDy=0;" edge="1" parent="1" source="_KIobRWbNTtasUsDJoAX-2">
          <mxGeometry width="50" height="50" relative="1" as="geometry">
            <mxPoint x="410" y="350" as="sourcePoint" />
            <mxPoint x="430" y="340" as="targetPoint" />
            <Array as="points">
              <mxPoint x="400" y="340" />
            </Array>
          </mxGeometry>
        </mxCell>
        <mxCell id="_KIobRWbNTtasUsDJoAX-5" value="" style="endArrow=none;html=1;rounded=0;" edge="1" parent="1">
          <mxGeometry width="50" height="50" relative="1" as="geometry">
            <mxPoint x="426" y="350" as="sourcePoint" />
            <mxPoint x="426" y="320" as="targetPoint" />
          </mxGeometry>
        </mxCell>
        <mxCell id="_KIobRWbNTtasUsDJoAX-7" value="" style="endArrow=none;dashed=1;html=1;rounded=0;" edge="1" parent="1">
          <mxGeometry width="50" height="50" relative="1" as="geometry">
            <mxPoint x="345" y="400" as="sourcePoint" />
            <mxPoint x="455" y="400" as="targetPoint" />
          </mxGeometry>
        </mxCell>
        <mxCell id="_KIobRWbNTtasUsDJoAX-8" value="" style="endArrow=none;dashed=1;html=1;rounded=0;exitX=0.5;exitY=1;exitDx=0;exitDy=0;" edge="1" parent="1">
          <mxGeometry width="50" height="50" relative="1" as="geometry">
            <mxPoint x="400" y="446" as="sourcePoint" />
            <mxPoint x="400" y="356" as="targetPoint" />
          </mxGeometry>
        </mxCell>
        <mxCell id="_KIobRWbNTtasUsDJoAX-11" value="" style="curved=1;endArrow=none;html=1;rounded=0;startFill=0;" edge="1" parent="1">
          <mxGeometry width="50" height="50" relative="1" as="geometry">
            <mxPoint x="299" y="440" as="sourcePoint" />
            <mxPoint x="319" y="440" as="targetPoint" />
            <Array as="points">
              <mxPoint x="299" y="435" />
              <mxPoint x="304" y="430" />
              <mxPoint x="314" y="430" />
              <mxPoint x="319" y="435" />
            </Array>
          </mxGeometry>
        </mxCell>
        <mxCell id="_KIobRWbNTtasUsDJoAX-12" value="" style="curved=1;endArrow=none;html=1;rounded=0;startFill=0;" edge="1" parent="1">
          <mxGeometry width="50" height="50" relative="1" as="geometry">
            <mxPoint x="319" y="440" as="sourcePoint" />
            <mxPoint x="339" y="440" as="targetPoint" />
            <Array as="points">
              <mxPoint x="319" y="450" />
              <mxPoint x="339" y="450" />
            </Array>
          </mxGeometry>
        </mxCell>
        <mxCell id="_KIobRWbNTtasUsDJoAX-13" value="" style="endArrow=none;html=1;rounded=0;" edge="1" parent="1">
          <mxGeometry width="50" height="50" relative="1" as="geometry">
            <mxPoint x="299" y="440" as="sourcePoint" />
            <mxPoint x="449" y="480" as="targetPoint" />
            <Array as="points">
              <mxPoint x="299" y="480" />
            </Array>
          </mxGeometry>
        </mxCell>
        <mxCell id="_KIobRWbNTtasUsDJoAX-14" value="" style="curved=1;endArrow=none;html=1;rounded=0;startFill=0;" edge="1" parent="1">
          <mxGeometry width="50" height="50" relative="1" as="geometry">
            <mxPoint x="339" y="440" as="sourcePoint" />
            <mxPoint x="359" y="440" as="targetPoint" />
            <Array as="points">
              <mxPoint x="339" y="435" />
              <mxPoint x="344" y="430" />
              <mxPoint x="354" y="430" />
              <mxPoint x="359" y="435" />
            </Array>
          </mxGeometry>
        </mxCell>
        <mxCell id="_KIobRWbNTtasUsDJoAX-15" value="" style="curved=1;endArrow=none;html=1;rounded=0;startFill=0;" edge="1" parent="1">
          <mxGeometry width="50" height="50" relative="1" as="geometry">
            <mxPoint x="359" y="440" as="sourcePoint" />
            <mxPoint x="379" y="440" as="targetPoint" />
            <Array as="points">
              <mxPoint x="359" y="450" />
              <mxPoint x="379" y="450" />
            </Array>
          </mxGeometry>
        </mxCell>
        <mxCell id="_KIobRWbNTtasUsDJoAX-16" value="" style="endArrow=none;dashed=1;html=1;rounded=0;" edge="1" parent="1">
          <mxGeometry width="50" height="50" relative="1" as="geometry">
            <mxPoint x="294" y="440" as="sourcePoint" />
            <mxPoint x="404" y="440" as="targetPoint" />
          </mxGeometry>
        </mxCell>
      </root>
    </mxGraphModel>
  </diagram>
</mxfile>
